<svg id="icon-insta" viewBox="0 0 26 26">
    <path d="M12.842 6.475c-3.58 0-6.547 2.827-6.547 6.348s2.915 6.348 6.547 6.348c3.631 0 6.546-2.877 6.546-6.348 0-3.472-2.966-6.348-6.546-6.348zm0 10.415c-2.302 0-4.194-1.835-4.194-4.067s1.892-4.067 4.194-4.067c2.301 0 4.194 1.835 4.194 4.067s-1.893 4.067-4.194 4.067zM19.644 7.768c.82 0 1.483-.644 1.483-1.439 0-.794-.664-1.438-1.483-1.438-.82 0-1.483.644-1.483 1.438 0 .795.664 1.44 1.483 1.44z"
          fill="currentColor"/>
    <path d="M23.48 2.608C22.15 1.268 20.258.574 18.11.574H7.573C3.123.574.157 3.451.157 7.766v10.167c0 2.132.716 3.968 2.148 5.307 1.381 1.29 3.223 1.934 5.32 1.934h10.433c2.2 0 4.041-.694 5.37-1.934 1.382-1.29 2.098-3.125 2.098-5.258V7.766c0-2.083-.716-3.869-2.046-5.158zm-.205 15.374c0 1.538-.562 2.778-1.483 3.62-.92.844-2.2 1.29-3.734 1.29H7.625c-1.535 0-2.813-.446-3.734-1.29-.92-.892-1.381-2.132-1.381-3.67V7.767c0-1.488.46-2.728 1.38-3.62.87-.844 2.2-1.29 3.735-1.29H18.16c1.534 0 2.813.446 3.733 1.339.87.892 1.381 2.132 1.381 3.57v10.217z"
          fill="currentColor"/>
</svg>