<svg id="icon-vk" viewBox="0 0 25 15">
    <path d="M23.93 1.167h-4.004a.904.904 0 00-.796.476s-1.597 2.941-2.11 3.932c-1.38 2.665-2.274 1.828-2.274.591V1.902A1.344 1.344 0 0013.403.558h-3.01a2.411 2.411 0 00-2.131.99S9.79 1.3 9.79 3.36c0 .51.027 1.98.05 3.212a.888.888 0 01-1.548.614 26.21 26.21 0 01-3.04-5.53.843.843 0 00-.767-.49H.847A.618.618 0 00.263 2c1.105 3.03 5.863 12.552 11.294 12.552h2.286a.903.903 0 00.903-.903v-1.38a.888.888 0 011.495-.647l2.737 2.57c.245.231.57.36.907.36h3.593c1.733 0 1.733-1.203.788-2.133-.665-.655-3.064-3.184-3.064-3.184a1.24 1.24 0 01-.096-1.61c.776-1.021 2.044-2.692 2.582-3.408.736-.978 2.067-3.05.242-3.05z"
          fill="currentColor"/>
</svg>